<svg xmlns="http://www.w3.org/2000/svg" xmlns:xlink="http://www.w3.org/1999/xlink" viewBox="0 0 785.24 170.4"><defs><style>.cls-1{fill:#d1d1d1;stroke:#d1d1d1;}.cls-1,.cls-2,.cls-3{stroke-miterlimit:10;}.cls-2{stroke:#b50000;fill:url(#linear-gradient);}.cls-2,.cls-3{stroke-width:1.5px;}.cls-3{stroke:#001675;fill:url(#linear-gradient-2);}.cls-4{fill:#c72a2e;}.cls-5{fill:#101c3d;}</style><linearGradient id="linear-gradient" x1="1.45" y1="71.65" x2="228.43" y2="71.65" gradientUnits="userSpaceOnUse"><stop offset="0" stop-color="#d52027"/><stop offset="1" stop-color="#a22027"/></linearGradient><linearGradient id="linear-gradient-2" x1="-1319.63" y1="-1294.19" x2="-1247.94" y2="-1294.19" gradientTransform="matrix(0.77, 0.64, -0.64, 0.77, 318.71, 1913)" gradientUnits="userSpaceOnUse"><stop offset="0" stop-color="#0c264b"/><stop offset="1" stop-color="#0c2694"/></linearGradient></defs><g id="Layer_2" data-name="Layer 2"><g id="Layer_1-2" data-name="Layer 1"><path class="cls-1" d="M46.23,168.76c3.56-17.14,7-34.34,17.34-48,1.51,27.55,13.81,40.84,31.88,46.53-.4-.41-.8-.84-1.21-1.22a57,57,0,0,1-11.35-14.28C66,108.29,102.24,76,103,75.35,102.15,75.21,15.9,99,46.23,168.76Z"/><path class="cls-2" d="M196.12,29.4c-7.5-1.08-12.88-2.17-20.92-2,3.79-1.51,6.24-1.61,10.46-1.81a109.58,109.58,0,0,1,12.69.68c-2.07-1.63-3.7-3.16-5.56-4.34-7.3-4.65-15.46-6.91-23.93-8.14-1.47-.22-3-.4-4.43-.56C160.82-.74,139,1.8,119.93,4.86,100.62,8,93.06,1.55,93.06,1.55c-.53,9.48,9.82,15.2,9.82,15.2l2.22,1.08-7.93,2.5a147,147,0,0,0-31.29,12.9A66.22,66.22,0,0,0,48.13,47.14c-.55.64-1.08,1.31-1.61,2-.2.26-.35.57-.82,1.35l12.63-5.24C30.7,72.6,8.74,103.25,1.45,141.76,6.5,134,11.29,125.62,17,118c14.9-20.06,34.22-35,56.24-46.48a237.6,237.6,0,0,1,106.89-27c11.48-.2,22.93.46,34.08,3.6,6.93,1.95,9.62,3.74,14.09,8.87C230,49,216.29,32.31,196.12,29.4Z"/><path class="cls-3" d="M170.77,138.07s-28.43-24.22-11.68-55.56S201.83,53,201.83,53s-42.22-10.79-70.72,33.26l-3-9s-26.31,34.19-4.67,71.64c0,0,4.2-11.2,20.79-12.4,0,0-14.82-27.59,9.25-56.2,0,0-18.26,28.13,3.93,55.89Z"/><path class="cls-4" d="M236.44,130.3l4.22,18.17h.06l5-18.17h3.1l5,18.17h.06L258,130.3h3l-5.49,22.17h-3.1l-5.12-19h-.06l-5.12,19H239L233.5,130.3Z"/><path class="cls-4" d="M293.45,139.76v2.48H282.07V150h13.24v2.48h-16V130.3h15.66v2.48H282.07v7Z"/><path class="cls-4" d="M327.12,140.47v.06a5.13,5.13,0,0,1,4.31,5.49c0,4.09-2.92,6.45-7.51,6.45h-9.55V130.3h8.93c4.53,0,7.26,2.14,7.26,5.58A4.51,4.51,0,0,1,327.12,140.47Zm-3.38-.9c3.16,0,4-1.36,4-3.38s-1.18-3.41-3.72-3.41h-6.88v6.79ZM317.17,150h7c3.57,0,4.44-1.89,4.44-4a3.66,3.66,0,0,0-3.82-4h-7.65Z"/><path class="cls-4" d="M372.16,130.3h8c6.11,0,9.86,4,9.86,11.1s-3.75,11.07-9.86,11.07h-8ZM375,150h5.24c5.64,0,7.07-4.25,7.07-8.59s-1.43-8.62-7.07-8.62H375Z"/><path class="cls-4" d="M423.34,139.76v2.48H412V150H425.2v2.48h-16V130.3h15.66v2.48H412v7Z"/><path class="cls-4" d="M460.17,146.67c0,3.23-2.39,6.23-8,6.23-5.24,0-9.3-2.79-9.61-7.87h2.79c.31,3,2.17,5.39,6.82,5.39,3.85,0,5.21-1.76,5.21-3.75,0-3-1.64-3.6-6.6-4.74-3.32-.78-7.29-1.92-7.29-6.24,0-3.5,2.7-5.82,7.6-5.82,4.71,0,8,2.41,8.37,7h-2.79c-.41-3-2.08-4.52-5.58-4.52-3.13,0-4.81,1.21-4.81,3,0,2.94,2.39,3.34,5.64,4.15C456.92,140.78,460.17,141.62,460.17,146.67Z"/><path class="cls-4" d="M482,130.3v22.17h-2.79V130.3Z"/><path class="cls-4" d="M511.66,132.35c-5.27,0-7.5,4.86-7.5,9s1.61,9,7.19,9a7,7,0,0,0,7.22-7h-7.22v-2.48h10v11.53h-1.86l-.94-3.13h-.06a8,8,0,0,1-7.16,3.56c-6.45,0-10-4.83-10-11.53s4.15-11.5,10.29-11.5c5.61,0,8.56,2.91,9.33,7.13H518.2C517.55,133.83,515,132.35,511.66,132.35Z"/><path class="cls-4" d="M541,130.3h3.42l11.07,18.26h.06V130.3h2.79v22.17h-3.41l-11.07-18.2h-.06v18.2H541Z"/><path class="cls-4" d="M592.48,139.76v2.48H581.1V150h13.24v2.48h-16V130.3H594v2.48H581.1v7Z"/><path class="cls-4" d="M613.4,130.3h9c4.37,0,7.32,2.36,7.32,6.29,0,3.2-1.52,5-4,5.59v.06c4.93,1,3.13,9.67,4.28,10v.19h-3c-1-.93,1.15-9-4.46-9h-6.36v9H613.4ZM616.19,141h5.55c2.29,0,5.18-.28,5.18-4.13s-2.89-4.12-5.18-4.12h-5.55Z"/><path class="cls-4" d="M665.05,146.67c0,3.23-2.39,6.23-8,6.23-5.24,0-9.3-2.79-9.61-7.87h2.79c.31,3,2.17,5.39,6.82,5.39,3.84,0,5.21-1.76,5.21-3.75,0-3-1.65-3.6-6.61-4.74-3.31-.78-7.28-1.92-7.28-6.24,0-3.5,2.69-5.82,7.59-5.82,4.72,0,8,2.41,8.38,7h-2.79c-.41-3-2.08-4.52-5.59-4.52-3.13,0-4.8,1.21-4.8,3,0,2.94,2.39,3.34,5.64,4.15C661.79,140.78,665.05,141.62,665.05,146.67Z"/><path class="cls-4" d="M708.91,130.3v22.17h-2.79V130.3Z"/><path class="cls-4" d="M728.94,130.3h3.41l11.07,18.26h.06V130.3h2.79v22.17h-3.41l-11.07-18.2h-.06v18.2h-2.79Z"/><path class="cls-4" d="M775.81,132.35c-5.27,0-7.47,4.55-7.47,9s2.2,9,7.47,9c4.65,0,6.45-3.16,6.64-5.95h2.79a9,9,0,0,1-9.43,8.43c-6.08,0-10.26-4.83-10.26-11.53s4.18-11.5,10.26-11.5c5.43,0,8.9,3.53,9.43,7.75h-2.79A6.28,6.28,0,0,0,775.81,132.35Z"/><polygon class="cls-5" points="272.91 41.87 272.91 41.88 266.08 54.22 272.91 66.56 299.09 113.87 312.76 113.87 279.75 54.22 272.91 41.87"/><polygon class="cls-5" points="233.06 113.87 246.73 113.87 269.49 72.75 262.69 60.35 233.06 113.87"/><polygon class="cls-5" points="323.11 113.87 333.45 113.87 333.45 74.15 323.11 63.8 323.11 113.87"/><polygon class="cls-5" points="323.11 41.85 323.11 56.48 333.45 66.83 333.45 66.83 355.35 88.72 359.29 84.79 362.67 81.41 376.75 67.33 376.75 113.87 387.1 113.87 387.1 42.34 355.35 74.09 323.11 41.85"/><rect class="cls-5" x="398.61" y="42.13" width="63.44" height="10.35"/><polygon class="cls-5" points="251.83 97.59 283.34 97.59 277.34 87.24 251.83 87.24 251.83 97.59"/><polygon class="cls-5" points="659.57 97.59 691.08 97.59 685.08 87.24 659.57 87.24 659.57 97.59"/><polygon class="cls-5" points="408.96 80.58 455.1 80.58 455.1 70.23 408.96 70.23 408.96 57.65 398.61 57.65 398.61 113.87 462.05 113.87 462.05 103.52 408.96 103.52 408.96 80.58"/><path class="cls-5" d="M604.71,52.22a25.69,25.69,0,0,1,23.61,15.63h11a36,36,0,0,0-70.22,5,35.39,35.39,0,0,0-.36,5.07,36.77,36.77,0,0,0,.38,5.28A36,36,0,0,0,639,89H627.82a25.65,25.65,0,1,1-23.11-36.78Z"/><polygon class="cls-5" points="681.16 41.87 681.15 41.88 674.32 54.22 681.16 66.56 707.34 113.87 721.01 113.87 687.99 54.22 681.16 41.87"/><polygon class="cls-5" points="641.31 113.87 654.98 113.87 677.73 72.75 670.93 60.35 641.31 113.87"/><polygon class="cls-5" points="773.21 42.1 773.21 88.56 726.6 41.96 726.6 56.59 736.95 66.94 736.95 66.94 773.21 103.2 783.55 113.54 783.55 42.1 773.21 42.1"/><polygon class="cls-5" points="726.6 113.87 736.95 113.87 736.95 74.26 726.6 63.91 726.6 113.87"/><rect class="cls-5" x="471.93" y="42.13" width="8.78" height="71.41"/><rect class="cls-5" x="471.16" y="41.85" width="10.33" height="71.41"/><polygon class="cls-5" points="505.59 79.12 528.88 113.26 540.72 113.26 517.29 78.91 505.59 79.12"/><path class="cls-5" d="M527.36,81.2a22.58,22.58,0,0,0,9.67-5c3.72-3.3,5.61-8,5.61-14.1,0-7.25-2.67-12.59-8-15.88-4.91-2.92-11.49-4.4-19.57-4.4H488.32V52.11H515.1c5.52,0,9.66.8,12.32,2.39,2.23,1.34,3.32,3.83,3.32,7.63s-1.06,6.14-3.25,7.47c-2.57,1.58-6.56,2.38-11.85,2.38H488.32V82.24h22.09c.82,0,1.91,0,3.11.06Z"/><path class="cls-5" d="M561,41.77v71.49h-10.8V41.77Z"/></g></g></svg>