<svg id="Layer_1" data-name="Layer 1" xmlns="http://www.w3.org/2000/svg" xmlns:xlink="http://www.w3.org/1999/xlink" viewBox="0 0 598.2 143.73"><defs><style>.cls-1{font-size:69.86px;font-family:Poppins-Bold, Poppins;font-weight:700;}.cls-2{font-family:Poppins-Light, Poppins;font-weight:300;}.cls-3{fill:#013d44;}.cls-4{fill:#155e66;}.cls-5{fill:#72aba6;}.cls-6{fill:#72aaa5;}.cls-7{fill:#0e444c;}.cls-8{fill:#1b626a;}.cls-9{fill:#70a9a4;}.cls-10{fill:#033d45;}.cls-11{fill:#165e67;}.cls-12{fill:#6fa9a4;}.cls-13{fill:#6fa8a3;}.cls-14{fill:#165f67;}.cls-15{fill:#71aaa5;}.cls-16{fill:#155d66;}.cls-17{fill:#145d66;}.cls-18{fill:#69a39f;}.cls-19{fill:#034046;}.cls-20{fill:#033f46;}.cls-21{fill:#70aaa5;}.cls-22{fill:#023e45;}.cls-23{fill:#175f67;}.cls-24{fill:#185f67;}.cls-25{fill:#064349;}.cls-26{fill:#165e66;}.cls-27{fill:url(#linear-gradient);}.cls-28{fill:url(#linear-gradient-2);}.cls-29{fill:url(#linear-gradient-3);}.cls-30{fill:url(#linear-gradient-4);}.cls-31{fill:url(#linear-gradient-5);}.cls-32{fill:url(#linear-gradient-6);}.cls-33{fill:url(#linear-gradient-7);}</style><linearGradient id="linear-gradient" x1="401.48" y1="123.16" x2="431.04" y2="123.16" gradientUnits="userSpaceOnUse"><stop offset="0" stop-color="#003c43"/><stop offset="0.92" stop-color="#77b0aa"/></linearGradient><linearGradient id="linear-gradient-2" x1="366.61" y1="130.59" x2="396.14" y2="130.59" xlink:href="#linear-gradient"/><linearGradient id="linear-gradient-3" x1="401.57" y1="101.48" x2="401.97" y2="101.48" xlink:href="#linear-gradient"/><linearGradient id="linear-gradient-4" x1="406.72" y1="101.51" x2="407.3" y2="101.51" xlink:href="#linear-gradient"/><linearGradient id="linear-gradient-5" x1="395.71" y1="116.47" x2="396.14" y2="116.47" xlink:href="#linear-gradient"/><linearGradient id="linear-gradient-6" x1="339.77" y1="119.88" x2="362.92" y2="119.88" xlink:href="#linear-gradient"/><linearGradient id="linear-gradient-7" x1="434.81" y1="130.29" x2="460.29" y2="130.29" xlink:href="#linear-gradient"/></defs><text class="cls-1" transform="translate(197.51 73.61)">Web<tspan class="cls-2" x="163.95" y="0">Native </tspan></text><text class="cls-1" transform="translate(197.51 73.61)">Web<tspan class="cls-2" x="163.95" y="0">Native </tspan></text><path class="cls-3" d="M258.22,123.05c-7.77,4.7-15.48,9.51-23.32,14.09-11.88,7-23.87,13.73-35.77,20.65a5,5,0,0,1-5.65.13q-28.89-16.78-57.84-33.44A16.72,16.72,0,0,1,133.7,123l30.55-17.45c4.73,2.46,9.5,4.86,14.2,7.38,5.86,3.14,11.67,6.38,17.51,9.57l7.18-2.86,0-1.19-6.79-3.34c-6.4-3.86-12.83-7.65-19.15-11.62-1.3-.82-2.18-2.31-3.25-3.49L203.51,82.8l31.17,17.55-6,4.77c1.58,1.07,2.6,1.85,3.7,2.51Q245.28,115.36,258.22,123.05Zm-62,27.44,16.06-8.62-.12-1.27-16-8.22-15.52,8.22.08,1.45Zm31.7-18,16.6-9.3L228,114.05l-16.18,8.51.14,1.29Zm-63.42-18.06-15.35,8.06-.12,1.4,15.29,8c.45.13,1,.5,1.31.34,5.07-2.82,10.1-5.7,15.82-9-3.67-2.13-6.56-3.94-9.58-5.53C169.53,116.46,167,115.5,164.54,114.41Zm38.74-4.89,16.56-8-.27-1.22c-4.2-2.42-8.37-4.88-12.62-7.21a16.92,16.92,0,0,0-3.59-1C197.75,94,193,97.36,187.05,101Z" transform="translate(-125.83 -15)"/><path class="cls-4" d="M258.22,123.05q-12.93-7.71-25.87-15.42c-1.1-.66-2.12-1.44-3.7-2.51l6-4.77L203.51,82.8V46.92L196.33,50V15c2.63,1.33,5.31,2.57,7.87,4,6.53,3.69,13,7.52,19.52,11.17a29,29,0,0,0,5,1.67,24.6,24.6,0,0,0-1,4.78c-.12,6.23-.06,12.46,0,18.69,0,5.38,1.32,6.9,7.38,8.06V28.94c1.81.85,3.69,1.57,5.43,2.55,7.69,4.38,15.41,8.72,23,13.33,1.37.84,2.85,2.84,2.87,4.33.2,11,0,22,0,33L235.76,65.34c-.5,3.55-1.85,6.68,1.24,8.53,7.28,4.38,14.78,8.39,22.19,12.56,0,10.73,0,21.47-.14,32.2A25.28,25.28,0,0,1,258.22,123.05ZM236,100.1l14.63,10.14,1-.83c0-5.44,0-10.87-.06-16.3,0-.39-.8-.76-1.24-1.13-3.26-5.51-9.42-6.4-14.05-9.74l-1.36.68Zm7.33-40.27c3,2.05,5.94,4.16,9,6.11,1.93,1.23,4,2.21,6,3.3l1.18-.68q-.63-8.76-1.25-17.52c-4.55-2.92-9.08-5.88-13.71-8.68-.3-.19-1.92.8-1.91,1.22C242.73,49,243,54.42,243.28,59.83ZM211.6,78l15.17,9.87.89-.85c0-5.31,0-10.62,0-15.93,0-.56-.75-1.1-1.15-1.66-.09-.34-.07-.86-.29-1-4.43-2.74-8.86-5.47-13.38-8-.29-.17-1.85.88-1.84,1.34C211.06,67.11,211.36,72.54,211.6,78Zm7.73-40.64c-4.54-3-9.05-6-13.68-8.8-.16-.1-2,1.51-2,2.38a107.41,107.41,0,0,0,0,11.49c0,1,.94,2,1.45,3,.17.65.13,1.63.54,1.89,4.57,2.81,9.2,5.5,14.82,8.82,0-6.11.05-11.2,0-16.29A7.89,7.89,0,0,0,219.33,37.32Z" transform="translate(-125.83 -15)"/><path class="cls-5" d="M196.33,15V50l7.18-3.1V82.8L173.9,100c-.54-1.26-1.5-2.52-1.54-3.8-.2-7.75-.19-15.5-.25-23.26V64.81l-6.65,3.44a37.35,37.35,0,0,1-.64-4.9c-.08-10.26-.07-20.51-.09-30.77q14.16-8.14,28.33-16.28A24.46,24.46,0,0,1,196.33,15Zm-.23,62.66V59.42c-5.5,3.13-10.14,5.73-14.71,8.42-.62.37-1,1.23-1.42,1.86V88.13Zm-7.58-31.5V27L172.63,37.42V56.06Z" transform="translate(-125.83 -15)"/><path class="cls-6" d="M125.83,79.26c0-9.8.17-19.59.09-29.38a5.05,5.05,0,0,1,3-5.09c8.65-4.84,17.2-9.87,25.8-14.8a25.07,25.07,0,0,1,2.6-1.11q0,17.91,0,35.81l-31,17.66-.25-.12C126,81.24,125.91,80.25,125.83,79.26Zm7.94-27.53v18l15.06-9.12a37.09,37.09,0,0,0,1.18-6c.19-4.21.06-8.42.06-13.47-5.79,3.32-10.57,6-15.29,8.82C134.27,50.28,134.1,51.13,133.77,51.73Z" transform="translate(-125.83 -15)"/><path class="cls-5" d="M164.25,105.5,133.7,123l-.3-31.21c0-1.56,0-3.11,0-4.67l30.4-17.6,1.08.27c0,9.67,0,19.35-.11,29C164.74,101,164.42,103.25,164.25,105.5ZM141.11,92v18.12c4.58-2.58,8.41-4.65,12.15-6.9a37.19,37.19,0,0,0,4-3.22V81.66c-4.87,2.83-8.88,5.07-12.8,7.47A26.88,26.88,0,0,0,141.11,92Z" transform="translate(-125.83 -15)"/><path class="cls-7" d="M163.79,69.47l-30.4,17.6-7.09-4.72,31-17.66Z" transform="translate(-125.83 -15)"/><path class="cls-8" d="M163.79,69.47l-6.51-4.78q0-17.89,0-35.81l7.43,3.7c0,10.26,0,20.51.1,30.77a37.35,37.35,0,0,0,.64,4.9c0,.5,0,1,0,1.49-.21,0-.43,0-.64,0Z" transform="translate(-125.83 -15)"/><path class="cls-9" d="M235,28.94V63.39c-6.06-1.16-7.37-2.68-7.38-8.06,0-6.23-.07-12.46,0-18.69a24.6,24.6,0,0,1,1-4.78Z" transform="translate(-125.83 -15)"/><path class="cls-10" d="M259.19,86.43c-7.41-4.17-14.91-8.18-22.19-12.56-3.09-1.85-1.74-5-1.24-8.53l30.48,16.81Z" transform="translate(-125.83 -15)"/><path class="cls-7" d="M125.83,79.26c.08,1,.15,2,.22,3C126,81.24,125.91,80.25,125.83,79.26Z" transform="translate(-125.83 -15)"/><path class="cls-11" d="M164.87,69.74c.21,0,.43,0,.64,0l6.6,3.15c.06,7.76,0,15.51.25,23.26,0,1.28,1,2.54,1.54,3.8,1.07,1.18,1.95,2.67,3.25,3.49,6.32,4,12.75,7.76,19.15,11.62q-.18,3.69-.34,7.39c-5.84-3.19-11.65-6.43-17.51-9.57-4.7-2.52-9.47-4.92-14.2-7.38.17-2.25.49-4.49.51-6.74C164.84,89.09,164.84,79.41,164.87,69.74Z" transform="translate(-125.83 -15)"/><path class="cls-12" d="M203.36,92.06a16.92,16.92,0,0,1,3.59,1c4.25,2.33,8.42,4.79,12.62,7.21l.27,1.22-16.56,8Q203.31,100.79,203.36,92.06Z" transform="translate(-125.83 -15)"/><path class="cls-13" d="M164.54,114.41c2.46,1.09,5,2,7.37,3.3,3,1.59,5.91,3.4,9.58,5.53-5.72,3.25-10.75,6.13-15.82,9-.28.16-.86-.21-1.31-.34Z" transform="translate(-125.83 -15)"/><path class="cls-14" d="M228,132.47l-16-8.62-.14-1.29L228,114.05Q228,123.26,228,132.47Z" transform="translate(-125.83 -15)"/><path class="cls-15" d="M196.15,132.38l16,8.22.12,1.27-16.06,8.62Q196.2,141.43,196.15,132.38Z" transform="translate(-125.83 -15)"/><path class="cls-16" d="M196.15,132.38q0,9,.11,18.11l-15.55-8.44-.08-1.45Z" transform="translate(-125.83 -15)"/><path class="cls-5" d="M228,132.47q0-9.21,0-18.42l16.58,9.12Z" transform="translate(-125.83 -15)"/><path class="cls-16" d="M203.36,92.06q0,8.73-.08,17.46L187.05,101C193,97.36,197.75,94,203.36,92.06Z" transform="translate(-125.83 -15)"/><path class="cls-17" d="M164.54,114.41l-.18,17.44-15.29-8,.12-1.4Z" transform="translate(-125.83 -15)"/><path class="cls-18" d="M196,122.45q.16-3.7.34-7.39l6.79,3.34,0,1.19Z" transform="translate(-125.83 -15)"/><path class="cls-15" d="M219.33,37.32a7.89,7.89,0,0,1,1,2.53c.1,5.09,0,10.18,0,16.29-5.62-3.32-10.25-6-14.82-8.82-.41-.26-.37-1.24-.54-1.89Z" transform="translate(-125.83 -15)"/><path class="cls-12" d="M226.46,69.39c.4.56,1.14,1.1,1.15,1.66.09,5.31,0,10.62,0,15.93l-.89.85L211.6,78Q219,73.69,226.46,69.39Z" transform="translate(-125.83 -15)"/><path class="cls-19" d="M226.46,69.39Q219,73.68,211.6,78c-.24-5.42-.54-10.85-.65-16.28,0-.46,1.55-1.51,1.84-1.34,4.52,2.58,9,5.31,13.38,8C226.39,68.53,226.37,69.05,226.46,69.39Z" transform="translate(-125.83 -15)"/><path class="cls-20" d="M243.28,59.83c-.25-5.41-.55-10.83-.67-16.25,0-.42,1.61-1.41,1.91-1.22,4.63,2.8,9.16,5.76,13.71,8.68Z" transform="translate(-125.83 -15)"/><path class="cls-21" d="M250.28,92c.44.37,1.24.74,1.24,1.13.08,5.43.06,10.86.06,16.3l-1,.83L236,100.1Z" transform="translate(-125.83 -15)"/><path class="cls-20" d="M219.33,37.32l-14.27,8.11c-.51-1-1.41-2-1.45-3a107.41,107.41,0,0,1,0-11.49c.05-.87,1.85-2.48,2-2.38C210.28,31.34,214.79,34.35,219.33,37.32Z" transform="translate(-125.83 -15)"/><path class="cls-15" d="M243.28,59.83l15-8.79q.63,8.76,1.25,17.52l-1.18.68c-2-1.09-4.1-2.07-6-3.3C249.22,64,246.27,61.88,243.28,59.83Z" transform="translate(-125.83 -15)"/><path class="cls-22" d="M250.28,92,236,100.1l-1.08-17.18,1.36-.68C240.86,85.58,247,86.47,250.28,92Z" transform="translate(-125.83 -15)"/><path class="cls-20" d="M172.63,37.42,188.52,27V46.16Z" transform="translate(-125.83 -15)"/><path class="cls-20" d="M180,69.7c.46-.63.8-1.49,1.42-1.86,4.57-2.69,9.21-5.29,14.71-8.42V77.66A44.19,44.19,0,0,1,191.88,76C187.88,73.93,183.93,71.8,180,69.7Z" transform="translate(-125.83 -15)"/><path class="cls-23" d="M180,69.7c4,2.1,7.91,4.23,11.91,6.27a44.19,44.19,0,0,0,4.22,1.69L180,88.13Z" transform="translate(-125.83 -15)"/><path class="cls-24" d="M172.63,37.42l15.89,8.74-15.89,9.9Z" transform="translate(-125.83 -15)"/><path class="cls-25" d="M172.11,72.89l-6.6-3.15c0-.49,0-1,0-1.49l6.65-3.44Z" transform="translate(-125.83 -15)"/><path class="cls-20" d="M133.77,51.73c.33-.6.5-1.45,1-1.75,4.72-2.8,9.5-5.5,15.29-8.82,0,5.05.13,9.26-.06,13.47a37.09,37.09,0,0,1-1.18,6Z" transform="translate(-125.83 -15)"/><path class="cls-23" d="M133.77,51.73l15.06,8.89-15.06,9.12Z" transform="translate(-125.83 -15)"/><path class="cls-20" d="M141.11,92a26.88,26.88,0,0,1,3.36-2.89c3.92-2.4,7.93-4.64,12.8-7.47V100c-1.41-.56-2.89-1-4.24-1.68C149,96.29,145.08,94.14,141.11,92Z" transform="translate(-125.83 -15)"/><path class="cls-26" d="M141.11,92c4,2.12,7.92,4.27,11.92,6.32,1.35.69,2.83,1.12,4.24,1.68a37.19,37.19,0,0,1-4,3.22c-3.74,2.25-7.57,4.32-12.15,6.9Z" transform="translate(-125.83 -15)"/><path class="cls-27" d="M407.3,101.73V118.5c4.27-2.76,8.55-3.66,13.16-2.31a14.39,14.39,0,0,1,7.89,5.64,15,15,0,0,1-.94,18.31c-4.28,5-12.63,6.89-19.92,2.28l-.17,2h-5.76c0-.41-.08-.81-.08-1.22V102.77c0-.36.06-.72.09-1.09l.4-.4h4.75Zm17.82,28.61a9.2,9.2,0,0,0-9.21-9.18,9.36,9.36,0,0,0-9.14,9.14,9.23,9.23,0,0,0,9.19,9.21A9.07,9.07,0,0,0,425.12,130.34Z" transform="translate(-125.83 -15)"/><path class="cls-28" d="M396.14,116.7v27.74h-5.73l-.18-1.9c-6.76,3.53-13.28,3.86-19.18-1.65a14.6,14.6,0,0,1-3.36-16c1.95-4.82,6.8-8.7,11.12-8.79a37.41,37.41,0,0,1-.07,4.74c-.07.56-.84,1.17-1.44,1.51a9.28,9.28,0,0,0-4.54,10.13,9.18,9.18,0,0,0,8.36,7.05,9.08,9.08,0,0,0,9.22-6.11,8.88,8.88,0,0,0-4.06-10.86,2.78,2.78,0,0,1-1.69-3c.09-3.85.41-4.07,3.86-2.21.54.28,1.06.59,1.72,1l.27-2.07h5.27Z" transform="translate(-125.83 -15)"/><path d="M374.62,130.12a7,7,0,0,0,7.56-.39,5.54,5.54,0,0,1,5.74-.24,2,2,0,0,1,.92,1.45c-.19,3.57-3.61,6.41-7.44,6.29A7,7,0,0,1,374.62,130.12Z" transform="translate(-125.83 -15)"/><path d="M382.52,109a2.31,2.31,0,0,1-.23,4.6,2.17,2.17,0,0,1-2.3-2.31A2.31,2.31,0,0,1,382.52,109Z" transform="translate(-125.83 -15)"/><path d="M378.56,103.25c.46.72,1.35,1.52,1.25,2.16a2.69,2.69,0,0,1-1.81,1.7,1.43,1.43,0,0,1-1.68-1.8c.15-.76.91-1.4,1.39-2.1Z" transform="translate(-125.83 -15)"/><path d="M384.08,99.25c-1,.75-1.56,1.54-2.08,1.51s-1.05-.86-1.58-1.34c.48-.51.91-1.36,1.46-1.46S383,98.6,384.08,99.25Z" transform="translate(-125.83 -15)"/><path class="cls-29" d="M402,101.28l-.4.4Z" transform="translate(-125.83 -15)"/><path class="cls-30" d="M407.3,101.73l-.58-.45Z" transform="translate(-125.83 -15)"/><path class="cls-31" d="M396.14,116.7l-.43-.45Z" transform="translate(-125.83 -15)"/><path class="cls-32" d="M346.51,95.28v44.85h16.41v4.36H339.77V95.28Z" transform="translate(-125.83 -15)"/><path class="cls-33" d="M448.06,147.22c-7.47,0-12.71-3.74-13.25-9.76h5.06c.36,3.61,2.1,5.59,7.46,5.59,4.7,0,8-1.92,8-5.05,0-8.14-19.76-3.38-19.76-15.73,0-4.88,4.64-8.92,11.57-8.92s11.69,3.74,12,10.07h-4.94c-.24-3.68-1.94-5.58-6.94-5.58-4.4,0-6.48,1.43-6.48,4.32,0,8.92,19.26,4.22,19.44,15.85C460.29,143.31,454.87,147.22,448.06,147.22Z" transform="translate(-125.83 -15)"/></svg>